# xmcd CD database file
#
# Track frame offsets:
#	150
#	18267
#	36535
#
# Disc length: 660 seconds
#
# Revision: 0
# Processed by: cddbd v1.5.1PL0 Copyright (c) Steve Scherf et al.
# Submitted via: CDex 1.51
#
DISCID=1e029203
DTITLE=嵐 - ナイスな心意気
DYEAR=2002
DGENRE=JPop
TTITLE0=ナイスな心意気
TTITLE1=ナイスな心意気 （オリジナル・カラオケ）
TTITLE2=トーク
EXTD=YEAR: 2002
EXTT0=
EXTT1=
EXTT2=
PLAYORDER=
